<svg width="51" height="51" viewBox="0 0 51 51" fill="none" xmlns="http://www.w3.org/2000/svg">
<path d="M36.6554 25.2522L24.8496 15.1205C24.759 15.0433 24.6434 15 24.5215 15H21.756C21.5247 15 21.4185 15.2843 21.5935 15.4326L32.5368 24.8258H14.25C14.1125 24.8258 14 24.9371 14 25.073V26.927C14 27.0629 14.1125 27.1742 14.25 27.1742H32.5337L21.5904 36.5674C21.4154 36.7188 21.5216 37 21.7529 37H24.6121C24.6715 37 24.7309 36.9784 24.7746 36.9382L36.6554 26.7478C36.7636 26.6547 36.8504 26.5399 36.9098 26.4109C36.9692 26.2819 37 26.1418 37 26C37 25.8582 36.9692 25.7181 36.9098 25.5891C36.8504 25.4601 36.7636 25.3453 36.6554 25.2522Z" fill="black"/>
<circle cx="25.5" cy="25.5" r="24.5" stroke="#0F0E0E" stroke-width="2"/>
</svg>
