<svg width="51" height="51" viewBox="0 0 51 51" fill="none" xmlns="http://www.w3.org/2000/svg">
<path d="M14.3446 25.7478L26.1504 35.8795C26.241 35.9567 26.3566 36 26.4785 36L29.244 36C29.4753 36 29.5815 35.7157 29.4065 35.5674L18.4632 26.1742L36.75 26.1742C36.8875 26.1742 37 26.0629 37 25.927L37 24.073C37 23.9371 36.8875 23.8258 36.75 23.8258L18.4663 23.8258L29.4096 14.4326C29.5846 14.2812 29.4784 14 29.2472 14L26.3879 14C26.3285 14 26.2691 14.0216 26.2254 14.0618L14.3446 24.2522C14.2364 24.3453 14.1496 24.4601 14.0902 24.5891C14.0308 24.7181 14 24.8582 14 25C14 25.1418 14.0308 25.2819 14.0902 25.4109C14.1496 25.5398 14.2364 25.6547 14.3446 25.7478Z" fill="black"/>
<circle cx="25.5" cy="25.5" r="24.5" transform="rotate(-180 25.5 25.5)" stroke="#0F0E0E" stroke-width="2"/>
</svg>
